<mxfile host="Electron" modified="2025-09-23T23:45:15.737Z" agent="Mozilla/5.0 (X11; Linux x86_64) AppleWebKit/537.36 (KHTML, like Gecko) draw.io/21.6.5 Chrome/114.0.5735.243 Electron/25.3.1 Safari/537.36" etag="AhAlcifdULW1rFiBYb3T" version="21.6.5" type="device">
  <diagram name="Page-1" id="RWA0JgZyFKaTBP8VbquF">
    <mxGraphModel dx="365" dy="1401" grid="1" gridSize="10" guides="1" tooltips="1" connect="1" arrows="1" fold="1" page="1" pageScale="1" pageWidth="827" pageHeight="1169" math="0" shadow="0">
      <root>
        <mxCell id="0" />
        <mxCell id="1" parent="0" />
        <mxCell id="tYZEQJP3OtZTUxsPn3Jf-1" value="&lt;br&gt;1&amp;nbsp; &amp;nbsp; &amp;nbsp; &amp;nbsp; &amp;nbsp;0" style="shape=trapezoid;perimeter=trapezoidPerimeter;whiteSpace=wrap;html=1;fixedSize=1;rotation=90;fillColor=#fff2cc;strokeColor=#d6b656;" parent="1" vertex="1">
          <mxGeometry x="380" y="540" width="80" height="40" as="geometry" />
        </mxCell>
        <mxCell id="tYZEQJP3OtZTUxsPn3Jf-3" value="" style="endArrow=none;html=1;rounded=0;exitX=1;exitY=0.5;exitDx=0;exitDy=0;entryX=0.75;entryY=1;entryDx=0;entryDy=0;" parent="1" edge="1">
          <mxGeometry width="50" height="50" relative="1" as="geometry">
            <mxPoint x="380" y="580" as="sourcePoint" />
            <mxPoint x="400" y="580" as="targetPoint" />
          </mxGeometry>
        </mxCell>
        <mxCell id="tYZEQJP3OtZTUxsPn3Jf-4" value="" style="endArrow=none;html=1;rounded=0;entryX=0.75;entryY=1;entryDx=0;entryDy=0;" parent="1" edge="1">
          <mxGeometry width="50" height="50" relative="1" as="geometry">
            <mxPoint x="380" y="540" as="sourcePoint" />
            <mxPoint x="400" y="540" as="targetPoint" />
          </mxGeometry>
        </mxCell>
        <mxCell id="tYZEQJP3OtZTUxsPn3Jf-10" value="" style="endArrow=none;html=1;rounded=0;exitX=1;exitY=0.5;exitDx=0;exitDy=0;" parent="1" edge="1">
          <mxGeometry width="50" height="50" relative="1" as="geometry">
            <mxPoint x="440" y="560" as="sourcePoint" />
            <mxPoint x="460" y="560" as="targetPoint" />
          </mxGeometry>
        </mxCell>
        <mxCell id="o8CHsQoTbhbgjQtkKeF--2" value="" style="endArrow=none;html=1;rounded=0;exitX=1;exitY=0.5;exitDx=0;exitDy=0;entryX=1;entryY=0.5;entryDx=0;entryDy=0;" parent="1" target="o8CHsQoTbhbgjQtkKeF--11" edge="1">
          <mxGeometry width="50" height="50" relative="1" as="geometry">
            <mxPoint x="420" y="590" as="sourcePoint" />
            <mxPoint x="380" y="620" as="targetPoint" />
            <Array as="points">
              <mxPoint x="420" y="620" />
            </Array>
          </mxGeometry>
        </mxCell>
        <mxCell id="o8CHsQoTbhbgjQtkKeF--8" value="0" style="text;html=1;strokeColor=none;fillColor=none;align=center;verticalAlign=middle;whiteSpace=wrap;rounded=0;fontFamily=Courier New;" parent="1" vertex="1">
          <mxGeometry x="360" y="570" width="20" height="20" as="geometry" />
        </mxCell>
        <mxCell id="o8CHsQoTbhbgjQtkKeF--9" value="1" style="text;html=1;strokeColor=none;fillColor=none;align=center;verticalAlign=middle;whiteSpace=wrap;rounded=0;fontFamily=Courier New;" parent="1" vertex="1">
          <mxGeometry x="360" y="530" width="20" height="20" as="geometry" />
        </mxCell>
        <mxCell id="o8CHsQoTbhbgjQtkKeF--10" value="" style="group;fontFamily=Courier New;" parent="1" vertex="1" connectable="0">
          <mxGeometry x="360" y="610" width="50" height="20" as="geometry" />
        </mxCell>
        <mxCell id="o8CHsQoTbhbgjQtkKeF--11" value="" style="triangle;whiteSpace=wrap;html=1;strokeColor=none;container=0;fillColor=#d5e8d4;" parent="o8CHsQoTbhbgjQtkKeF--10" vertex="1">
          <mxGeometry x="40" width="10" height="20" as="geometry" />
        </mxCell>
        <mxCell id="o8CHsQoTbhbgjQtkKeF--12" value="&lt;font face=&quot;Courier New&quot;&gt;b&lt;/font&gt;" style="rounded=0;whiteSpace=wrap;html=1;strokeColor=none;container=0;fillColor=#d5e8d4;glass=0;" parent="o8CHsQoTbhbgjQtkKeF--10" vertex="1">
          <mxGeometry width="40" height="20" as="geometry" />
        </mxCell>
        <mxCell id="o8CHsQoTbhbgjQtkKeF--13" value="" style="endArrow=none;html=1;rounded=0;fillColor=#d5e8d4;strokeColor=#82b366;" parent="o8CHsQoTbhbgjQtkKeF--10" edge="1">
          <mxGeometry width="50" height="50" relative="1" as="geometry">
            <mxPoint x="10" y="20" as="sourcePoint" />
            <mxPoint x="10" y="20" as="targetPoint" />
            <Array as="points">
              <mxPoint x="40" y="20" />
              <mxPoint x="50" y="10" />
              <mxPoint x="40" />
              <mxPoint />
              <mxPoint y="20" />
            </Array>
          </mxGeometry>
        </mxCell>
        <mxCell id="o8CHsQoTbhbgjQtkKeF--18" value="" style="group;fontFamily=Courier New;" parent="1" vertex="1" connectable="0">
          <mxGeometry x="460" y="550" width="50" height="20" as="geometry" />
        </mxCell>
        <mxCell id="o8CHsQoTbhbgjQtkKeF--19" value="" style="triangle;whiteSpace=wrap;html=1;strokeColor=none;container=0;fillColor=#dae8fc;" parent="o8CHsQoTbhbgjQtkKeF--18" vertex="1">
          <mxGeometry x="40" width="10" height="20" as="geometry" />
        </mxCell>
        <mxCell id="o8CHsQoTbhbgjQtkKeF--20" value="&lt;font face=&quot;Courier New&quot;&gt;i&lt;/font&gt;" style="rounded=0;whiteSpace=wrap;html=1;strokeColor=none;container=0;fillColor=#dae8fc;glass=0;" parent="o8CHsQoTbhbgjQtkKeF--18" vertex="1">
          <mxGeometry width="40" height="20" as="geometry" />
        </mxCell>
        <mxCell id="o8CHsQoTbhbgjQtkKeF--21" value="" style="endArrow=none;html=1;rounded=0;fillColor=#dae8fc;strokeColor=#6c8ebf;" parent="o8CHsQoTbhbgjQtkKeF--18" edge="1">
          <mxGeometry width="50" height="50" relative="1" as="geometry">
            <mxPoint x="10" y="20" as="sourcePoint" />
            <mxPoint x="10" y="20" as="targetPoint" />
            <Array as="points">
              <mxPoint x="40" y="20" />
              <mxPoint x="50" y="10" />
              <mxPoint x="40" />
              <mxPoint />
              <mxPoint y="20" />
            </Array>
          </mxGeometry>
        </mxCell>
      </root>
    </mxGraphModel>
  </diagram>
</mxfile>
